<svg width="8" height="14" viewBox="0 0 8 14" fill="none" xmlns="http://www.w3.org/2000/svg">
<path d="M0.292785 13.0087C0.105314 12.8212 -1.49473e-06 12.5669 -1.51792e-06 12.3017C-1.5411e-06 12.0366 0.105314 11.7823 0.292785 11.5947L5.24278 6.64473L0.292784 1.69473C0.110626 1.50613 0.00983171 1.25352 0.0121101 0.991326C0.0143885 0.729129 0.119557 0.478316 0.304965 0.292908C0.490373 0.1075 0.741186 0.00233243 1.00338 5.39874e-05C1.26558 -0.00222445 1.51818 0.0985699 1.70678 0.280728L7.36378 5.93773C7.55125 6.12526 7.65657 6.37956 7.65657 6.64473C7.65657 6.90989 7.55125 7.1642 7.36378 7.35173L1.70678 13.0087C1.51926 13.1962 1.26495 13.3015 0.999785 13.3015C0.734621 13.3015 0.480313 13.1962 0.292785 13.0087Z" fill="white"/>
</svg>
