<svg width="14" height="8" viewBox="0 0 14 8" fill="none" xmlns="http://www.w3.org/2000/svg">
<path d="M0.292786 0.292709C0.480314 0.105238 0.734622 -7.77975e-05 0.999786 -7.78091e-05C1.26495 -7.78207e-05 1.51926 0.105238 1.70679 0.292709L6.65679 5.24271L11.6068 0.292708C11.7954 0.11055 12.048 0.00975591 12.3102 0.0120343C12.5724 0.0143127 12.8232 0.119481 13.0086 0.30489C13.194 0.490298 13.2992 0.74111 13.3015 1.00331C13.3037 1.2655 13.2029 1.51811 13.0208 1.70671L7.36379 7.36371C7.17626 7.55118 6.92195 7.65649 6.65679 7.65649C6.39162 7.65649 6.13731 7.55118 5.94979 7.36371L0.292786 1.70671C0.105315 1.51918 -2.79387e-07 1.26487 -2.90977e-07 0.999708C-3.02568e-07 0.734544 0.105315 0.480236 0.292786 0.292709Z" fill="#9CB4C7"/>
</svg>
