<svg width="15" height="11" viewBox="0 0 15 11" fill="none" xmlns="http://www.w3.org/2000/svg">
<path d="M14.7063 0.293692C14.7994 0.386553 14.8732 0.496869 14.9237 0.618319C14.9741 0.73977 15 0.86997 15 1.00146C15 1.13295 14.9741 1.26315 14.9237 1.38461C14.8732 1.50606 14.7994 1.61637 14.7063 1.70923L5.7081 10.7063C5.61523 10.7994 5.5049 10.8733 5.38344 10.9237C5.26197 10.9741 5.13175 11 5.00025 11C4.86874 11 4.73852 10.9741 4.61706 10.9237C4.49559 10.8733 4.38526 10.7994 4.29239 10.7063L0.293203 6.70761C0.105468 6.5199 0 6.2653 0 5.99984C0 5.73437 0.105468 5.47978 0.293203 5.29207C0.480938 5.10436 0.735562 4.9989 1.00106 4.9989C1.26656 4.9989 1.52118 5.10436 1.70892 5.29207L5.00025 8.585L13.2906 0.293692C13.3834 0.200596 13.4938 0.126734 13.6152 0.0763378C13.7367 0.0259413 13.8669 0 13.9984 0C14.1299 0 14.2601 0.0259413 14.3816 0.0763378C14.5031 0.126734 14.6134 0.200596 14.7063 0.293692Z" fill="#1196FE"/>
</svg>
