<svg width="16" height="14" viewBox="0 0 16 14" fill="none" xmlns="http://www.w3.org/2000/svg">
<path d="M0.999994 1H3.49999L4.36999 7.82921C4.40616 8.01747 4.52728 8.18907 4.71104 8.31239C4.89481 8.43571 5.12883 8.50244 5.36999 8.50029H11.67C11.8881 8.50927 12.1039 8.46166 12.2844 8.36472C12.465 8.26778 12.6004 8.12684 12.67 7.96342L14 4.80541C14.0496 4.68668 14.0627 4.56035 14.0384 4.43682C14.0141 4.31328 13.9529 4.19608 13.86 4.09486C13.7632 3.98723 13.6337 3.90048 13.4835 3.84256C13.3333 3.78463 13.167 3.75737 13 3.76326H3.84999" stroke="white" stroke-width="2" stroke-linecap="round" stroke-linejoin="round"/>
<rect width="9" height="5" transform="matrix(-1 0 0 1 13.0503 3)" fill="white"/>
<circle cx="1.75" cy="1.75" r="1.75" transform="matrix(-1 0 0 1 14.0503 10)" fill="white"/>
<circle cx="1.75" cy="1.75" r="1.75" transform="matrix(-1 0 0 1 7.05029 10)" fill="white"/>
</svg>
