<svg width="16" height="3" viewBox="0 0 16 3" fill="none" xmlns="http://www.w3.org/2000/svg">
<path d="M6.95652 6.2719e-05L9.04348 0L14.9565 0.000132382C15.2333 0.000132382 15.4987 0.110069 15.6944 0.305759C15.8901 0.501449 16 0.766862 16 1.04361C16 1.32036 15.8901 1.58577 15.6944 1.78146C15.4987 1.97715 15.2333 2.08709 14.9565 2.08709H9.04348H6.95652H1.04348C0.766731 2.08709 0.501318 1.97715 0.305628 1.78146C0.109937 1.58577 0 1.32036 0 1.04361C0 0.766862 0.109937 0.501449 0.305628 0.305759C0.501318 0.110069 0.766731 0.000132382 1.04348 0.000132382L6.95652 6.2719e-05Z" fill="#0050F6"/>
</svg>
