<svg width="172" height="267" viewBox="0 0 172 267" fill="none" xmlns="http://www.w3.org/2000/svg">
<path d="M49.8694 15.7215C49.4463 15.2828 48.91 14.9712 48.3209 14.8218C47.7318 14.6724 47.1134 14.6912 46.5354 14.8759C45.9574 15.0607 45.4428 15.4041 45.0496 15.8675C44.6565 16.3309 44.4003 16.8959 44.3101 17.4986L39.8794 47.4295L12.8071 60.6562C12.2609 60.923 11.8004 61.3383 11.4777 61.8551C11.155 62.3719 10.983 62.9695 10.9811 63.5804C10.9793 64.1912 11.1477 64.791 11.4673 65.3117C11.7869 65.8324 12.2449 66.2534 12.7895 66.527L39.7766 80.0955L44.0164 110.088C44.1023 110.692 44.3546 111.261 44.7448 111.73C45.135 112.198 45.6476 112.549 46.2247 112.741C46.8018 112.934 47.4205 112.96 48.0108 112.818C48.6012 112.676 49.1397 112.371 49.5657 111.937L70.6737 90.3857L100.369 95.6969C100.968 95.8032 101.583 95.7393 102.146 95.5126C102.71 95.2858 103.198 94.9053 103.557 94.4138C103.915 93.9223 104.13 93.3396 104.175 92.7313C104.221 92.123 104.097 91.5134 103.816 90.9713L89.8706 64.0751L103.985 37.3745C104.27 36.8358 104.399 36.2272 104.357 35.6176C104.315 35.008 104.104 34.4218 103.749 33.9253C103.393 33.4288 102.906 33.0417 102.343 32.808C101.781 32.5742 101.165 32.5031 100.565 32.6026L70.8404 37.5322L49.8694 15.7215Z" fill="#9EC0EF"/>
<path d="M138.888 97.5295C138.697 97.3006 138.446 97.1298 138.163 97.0363C137.881 96.9428 137.579 96.9303 137.29 97.0003C137.002 97.0702 136.739 97.2198 136.531 97.4322C136.322 97.6446 136.178 97.9113 136.113 98.2023L132.904 112.653L119.23 118.161C118.954 118.272 118.715 118.459 118.54 118.7C118.364 118.941 118.259 119.226 118.237 119.524C118.215 119.822 118.276 120.121 118.414 120.386C118.551 120.651 118.76 120.873 119.016 121.025L131.711 128.59L132.732 143.374C132.752 143.672 132.856 143.959 133.03 144.201C133.204 144.444 133.442 144.633 133.716 144.747C133.991 144.861 134.292 144.895 134.585 144.847C134.878 144.798 135.152 144.668 135.375 144.471L146.429 134.692L160.734 138.323C161.023 138.395 161.325 138.386 161.608 138.295C161.891 138.204 162.143 138.035 162.335 137.808C162.527 137.581 162.652 137.304 162.695 137.008C162.739 136.713 162.7 136.411 162.582 136.137L156.717 122.524L164.538 109.988C164.696 109.735 164.78 109.443 164.781 109.144C164.782 108.845 164.7 108.552 164.544 108.297C164.387 108.042 164.163 107.836 163.897 107.702C163.631 107.569 163.332 107.512 163.036 107.54L148.359 108.906L138.888 97.5295Z" fill="#9EC0EF"/>
<path d="M40.6541 138.521C40.51 138.465 40.3533 138.45 40.2017 138.478C40.0501 138.506 39.9096 138.576 39.796 138.68C39.6824 138.784 39.6003 138.918 39.5589 139.067C39.5175 139.215 39.5184 139.373 39.5616 139.521L41.719 146.889L36.8845 152.812C36.787 152.932 36.725 153.077 36.7055 153.23C36.686 153.383 36.7098 153.539 36.7743 153.68C36.8387 153.821 36.9412 153.942 37.0702 154.028C37.1991 154.114 37.3494 154.162 37.5039 154.167L45.1642 154.428L49.3262 160.89C49.4102 161.02 49.5287 161.124 49.6684 161.191C49.8082 161.258 49.9635 161.284 50.1169 161.267C50.2704 161.25 50.4158 161.191 50.5367 161.095C50.6577 161 50.7494 160.872 50.8015 160.727L53.3774 153.519L60.7849 151.589C60.9341 151.55 61.0692 151.47 61.175 151.358C61.2807 151.246 61.3529 151.107 61.3833 150.955C61.4137 150.804 61.4012 150.647 61.3472 150.502C61.2932 150.357 61.1998 150.229 61.0776 150.134L55.0075 145.417L55.4248 137.765C55.4333 137.61 55.3983 137.456 55.324 137.32C55.2496 137.184 55.1388 137.071 55.0041 136.995C54.8694 136.918 54.7161 136.881 54.5616 136.886C54.4071 136.892 54.2576 136.941 54.13 137.028L47.8032 141.321L40.6541 138.521Z" fill="#9EC0EF"/>
<path d="M82.0108 172.578C81.9053 172.151 81.6832 171.763 81.3696 171.457C81.0561 171.15 80.6634 170.939 80.236 170.845C79.8086 170.752 79.3633 170.78 78.9505 170.927C78.5377 171.074 78.1737 171.334 77.8996 171.677L64.3183 188.752L42.6457 187.222C42.2084 187.191 41.771 187.284 41.3829 187.49C40.9947 187.696 40.6714 188.006 40.4495 188.387C40.2276 188.767 40.116 189.202 40.1272 189.643C40.1384 190.083 40.2721 190.511 40.5131 190.879L52.449 209.098L44.2557 229.345C44.0909 229.753 44.0428 230.199 44.1168 230.633C44.1909 231.066 44.3841 231.47 44.6747 231.799C44.9653 232.127 45.3417 232.368 45.7614 232.492C46.1811 232.617 46.6274 232.621 47.0499 232.505L68.0094 226.685L84.6192 240.731C84.9543 241.013 85.3616 241.196 85.795 241.258C86.2284 241.32 86.6707 241.259 87.072 241.082C87.4734 240.905 87.8177 240.619 88.0661 240.256C88.3146 239.893 88.4573 239.467 88.4781 239.028L89.4962 217.205L107.953 205.645C108.325 205.412 108.625 205.079 108.82 204.684C109.014 204.288 109.094 203.846 109.052 203.408C109.009 202.969 108.845 202.552 108.579 202.203C108.312 201.854 107.953 201.587 107.543 201.432L87.2141 193.766L82.0108 172.578Z" fill="#9EC0EF"/>
<path d="M92.9252 254.962C92.8869 254.897 92.8313 254.844 92.7648 254.809C92.6982 254.775 92.6233 254.759 92.5485 254.765C92.4737 254.77 92.402 254.797 92.3414 254.841C92.2809 254.886 92.2339 254.946 92.2057 255.016L90.8148 258.488L87.1802 259.303C87.1068 259.319 87.0395 259.356 86.9859 259.409C86.9323 259.462 86.8945 259.528 86.8767 259.602C86.859 259.675 86.8621 259.752 86.8856 259.824C86.9091 259.896 86.9521 259.96 87.0097 260.008L89.8658 262.413L89.5156 266.141C89.5086 266.217 89.5226 266.292 89.5561 266.36C89.5896 266.427 89.6412 266.484 89.7051 266.524C89.7689 266.563 89.8426 266.584 89.9176 266.584C89.9927 266.584 90.0662 266.563 90.1299 266.523L93.286 264.537L96.7044 266.027C96.7734 266.057 96.8492 266.067 96.9235 266.056C96.9977 266.044 97.0673 266.013 97.1245 265.964C97.1817 265.915 97.2242 265.851 97.2472 265.779C97.2701 265.707 97.2727 265.631 97.2545 265.557L96.3487 261.923L98.8115 259.117C98.8612 259.061 98.8942 258.991 98.9066 258.917C98.9191 258.842 98.9106 258.766 98.882 258.696C98.8535 258.626 98.806 258.565 98.7451 258.521C98.6841 258.477 98.6121 258.451 98.5371 258.446L94.8215 258.186L92.9252 254.962Z" fill="#9EC0EF"/>
<path d="M112.325 226.827C112.265 226.724 112.178 226.64 112.074 226.584C111.969 226.528 111.851 226.503 111.733 226.511C111.615 226.519 111.501 226.56 111.405 226.629C111.309 226.699 111.234 226.794 111.189 226.904L108.953 232.365L103.209 233.607C103.093 233.632 102.987 233.689 102.902 233.772C102.816 233.855 102.756 233.96 102.727 234.076C102.698 234.191 102.702 234.313 102.738 234.426C102.775 234.54 102.842 234.641 102.932 234.718L107.41 238.547L106.813 244.425C106.801 244.543 106.822 244.663 106.874 244.77C106.927 244.877 107.007 244.967 107.108 245.03C107.208 245.094 107.324 245.128 107.442 245.128C107.561 245.129 107.677 245.096 107.778 245.034L112.781 241.938L118.157 244.329C118.265 244.377 118.385 244.394 118.502 244.377C118.619 244.36 118.73 244.311 118.82 244.235C118.911 244.158 118.979 244.058 119.016 243.945C119.053 243.832 119.058 243.711 119.03 243.595L117.644 237.851L121.563 233.453C121.642 233.364 121.695 233.255 121.716 233.137C121.736 233.02 121.724 232.899 121.679 232.788C121.635 232.678 121.561 232.582 121.465 232.511C121.37 232.441 121.256 232.398 121.138 232.389L115.279 231.936L112.325 226.827Z" fill="#9EC0EF"/>
</svg>
