<svg width="915" height="129" viewBox="0 0 915 129" fill="none" xmlns="http://www.w3.org/2000/svg">
<path d="M628.682 54.6666V96.3331H638.761H648.84V94.1733V92.0135L650.082 93.0394C652.494 95.0732 655.59 96.5131 659.099 97.233C660.755 97.575 661.367 97.611 664.139 97.539C667.487 97.431 669.125 97.1611 671.806 96.2251C676.144 94.7493 680.23 91.6355 683.073 87.6758C684.387 85.84 686.259 82.0963 686.997 79.7925C688.185 76.1208 688.797 71.9092 688.797 67.4095C688.797 59.7422 686.997 53.1907 683.487 47.8992C679.87 42.4816 674.668 38.9899 668.261 37.748C665.939 37.2981 661.871 37.1901 659.891 37.55C655.95 38.234 652.584 39.7639 649.794 42.1217L648.84 42.9136V27.9568V13.0001H638.761H628.682V54.6666ZM660.431 54.8646C662.645 55.4045 664.895 57.0244 666.227 59.0222C667.775 61.362 668.495 64.0618 668.495 67.5355C668.495 73.763 665.633 78.3526 660.773 79.8825C659.387 80.3145 656.868 80.4045 655.446 80.0625C652.962 79.4865 650.514 77.7407 649.362 75.7248L648.84 74.8249V67.3735V59.9222L649.38 59.0762C650.532 57.2764 652.71 55.6385 654.852 54.9366C656.544 54.3966 658.379 54.3606 660.431 54.8646Z" fill="#0050F6"/>
<path d="M474.795 52.1827L460 67.0855L460.126 69.1553C460.522 76.3367 462.556 82.2402 466.263 87.0998C467.649 88.9176 470.475 91.5634 472.347 92.8053C475.425 94.8392 479.006 96.297 482.93 97.089C484.712 97.4489 485.486 97.5029 489.284 97.5029C494.089 97.5029 495.997 97.233 499.327 96.117C506.886 93.6153 512.466 87.9817 514.841 80.4944C515.381 78.7665 516.011 75.9767 516.011 75.2208V74.7348H506.22H496.429L496.303 75.4008C496.141 76.3187 495.421 77.6686 494.665 78.5145C492.487 80.9263 488.042 81.3943 485.072 79.5224C483.092 78.2625 481.526 75.8507 480.698 72.755C480.338 71.3871 480.284 70.8112 480.284 67.4454C480.284 63.0898 480.536 61.7939 481.85 59.0941C483.974 54.7745 488.474 52.9747 492.559 54.8465C494.323 55.6564 495.979 57.6903 496.303 59.4721L496.429 60.1561H506.22H516.011V59.6521C516.011 58.9142 515.381 56.1244 514.841 54.3965C513.33 49.6449 510.216 45.2173 506.382 42.3735C504.816 41.2216 501.829 39.6558 499.795 38.9538C497.185 38.0359 493.027 37.298 490.471 37.298H489.59L474.795 52.1827Z" fill="#0050F6"/>
<path d="M545.169 37.4781C539.391 38.288 534.748 40.2139 530.644 43.4896C522.077 50.401 518.261 62.532 520.781 75.023C523.247 87.244 532.066 95.5593 544.449 97.3231C546.897 97.6651 551.774 97.6651 554.402 97.3231C562.015 96.3332 568.045 92.9855 572.041 87.5499C574.11 84.7242 575.82 80.5665 576.396 76.9308L576.522 76.1749H567.145C558.362 76.1749 557.75 76.1929 557.66 76.4809C557.084 78.2267 555.554 80.0626 554.024 80.8365C552.17 81.7904 548.733 82.0784 546.645 81.4844C542.793 80.3685 540.363 77.1828 539.679 72.3412L539.553 71.4953H558.218H576.9L576.792 67.0316C576.666 62.388 576.396 59.9582 575.676 57.0965C573.049 46.5854 565.885 39.7819 555.356 37.8201C553.088 37.3881 547.203 37.2081 545.169 37.4781ZM552.422 53.8207C554.564 54.8107 556.04 56.5925 556.76 59.0583C556.922 59.5983 557.048 60.3182 557.048 60.6422V61.2361H548.499C543.801 61.2361 539.949 61.2181 539.949 61.1821C539.949 61.1461 540.147 60.5342 540.399 59.8142C541.533 56.4305 543.657 54.2527 546.609 53.3888C547.113 53.2268 548.121 53.1728 549.327 53.1908C551.018 53.2448 551.36 53.3168 552.422 53.8207Z" fill="#0050F6"/>
<path d="M613.761 37.4959C612.285 37.7479 609.693 38.6658 608.452 39.3858C607.048 40.2137 605.986 41.0776 604.798 42.3375L603.844 43.3274V40.9336V38.5578H593.675H583.506V67.4454V96.333H593.675H603.844V79.2524V62.1899L604.474 60.93C605.554 58.7522 607.588 57.2043 610.341 56.4483C611.223 56.1964 612.159 56.1244 614.283 56.1244C617.343 56.1244 619.179 56.4663 621.212 57.3483C621.77 57.6182 622.274 57.8162 622.31 57.8162C622.346 57.8162 622.382 53.4066 622.382 48.025V38.2339L621.536 37.9459C619.539 37.3159 616.119 37.118 613.761 37.4959Z" fill="#0050F6"/>
<path d="M717.954 37.5501C708.901 38.8639 701.648 43.7235 697.274 51.4269C692.343 60.0842 692.001 72.8811 696.446 82.2043C700.55 90.7896 708.361 96.1712 718.548 97.431C720.834 97.701 726.846 97.557 729.024 97.1611C734.855 96.0992 740.039 93.4534 743.494 89.7457C746.41 86.614 748.462 82.6183 749.434 78.1007C749.65 77.1467 749.812 76.3188 749.812 76.2648C749.812 76.2108 745.618 76.1748 740.489 76.1748H731.147L730.481 77.5067C729.725 79.0546 728.538 80.2245 727.062 80.9264C725.694 81.5744 724.596 81.7904 722.616 81.7904C720.654 81.7904 718.656 81.2324 717.342 80.3325C716.137 79.4865 714.913 78.0467 714.265 76.6608C713.617 75.3109 712.915 72.8811 712.915 71.9992V71.4952H731.453H749.992V67.3736C749.992 61.668 749.614 58.9143 748.264 54.7566C747.094 51.1209 745.186 47.8632 742.648 45.1994C738.833 41.1678 734.387 38.8819 728.196 37.73C726.09 37.3341 720.168 37.2441 717.954 37.5501ZM725.388 53.6587C727.998 54.6846 729.887 57.2224 730.301 60.3002L730.427 61.2361H721.842C717.127 61.2361 713.275 61.1641 713.275 61.0921C713.275 61.0021 713.437 60.4801 713.635 59.9042C714.805 56.5025 717.019 54.1987 719.934 53.3707C721.194 53.0108 724.11 53.1727 725.388 53.6587Z" fill="#0050F6"/>
<path d="M785.773 37.5859C782.461 38.1799 779.167 39.9977 777.097 42.3735L776.269 43.3274V40.9336V38.5578H766.1H755.931V67.4454V96.333H766.1H776.269V79.1804V62.0099L776.827 60.894C777.889 58.7881 780.013 57.1683 782.659 56.4663C784.297 56.0344 787.375 55.9264 789.498 56.2504C790.992 56.4843 792.99 57.0783 794.502 57.7262C794.79 57.8522 794.808 57.3123 794.808 48.043V38.2519L793.872 37.9459C791.658 37.2619 788.382 37.1 785.773 37.5859Z" fill="#0050F6"/>
<path d="M884.08 37.478C880.643 37.91 877.475 38.8099 874.613 40.1598C872.237 41.2937 870.852 42.2476 868.998 44.0295C864.948 47.9171 863.112 53.1367 863.724 58.9322C864.318 64.4038 866.55 67.9675 871.068 70.6312C874.055 72.3951 876.215 73.025 885.43 74.9329C892.054 76.2828 893.278 76.6247 894.196 77.3987C896.103 79.0005 895.258 81.8263 892.558 82.8522C891.298 83.3202 889.012 83.4822 887.644 83.2122C885.286 82.7082 883.163 81.0704 882.515 79.2165L882.191 78.3346H872.327H862.446L862.572 79.1625C862.788 80.6744 863.364 82.6182 864.084 84.2741C867.27 91.5815 874.721 96.2971 884.836 97.395C887.086 97.647 892.054 97.647 894.304 97.395C903.483 96.4051 910.448 92.2114 913.4 85.858C915.758 80.8544 915.488 74.3209 912.734 69.6233C911.906 68.2194 909.746 65.9696 908.234 64.9617C904.977 62.7839 902.709 62.01 893.044 59.7242C889.12 58.8062 885.538 57.8703 885.088 57.6543C883.271 56.7544 882.983 54.5586 884.494 52.9927C885.988 51.4448 889.84 51.0849 892.576 52.2728C893.656 52.7407 895.114 54.2886 895.456 55.3325L895.726 56.1065L905.103 56.1604L914.498 56.1964L914.39 55.4405C914.21 54.2706 913.472 51.7868 912.86 50.3469C911.636 47.3772 909.242 44.3174 906.597 42.3196C903.897 40.2858 899.613 38.5759 895.42 37.838C892.864 37.388 886.474 37.19 884.08 37.478Z" fill="#0050F6"/>
<path d="M800.981 59.0222C801.035 77.2367 801.071 79.6845 801.341 81.1604C802.835 89.3317 807.407 94.6952 814.642 96.765C817.018 97.449 818.998 97.647 822.256 97.539C824.541 97.467 825.495 97.359 826.845 96.999C830.481 96.0451 833.343 94.5872 835.485 92.6074L836.564 91.6175V93.9753V96.3331H846.734H856.903V67.4455V38.5579H846.734H836.564L836.528 56.3404L836.474 74.1049L835.898 75.2928C834.441 78.2626 830.895 80.2064 827.601 79.8825C824.487 79.5585 822.454 77.8306 821.482 74.6809C821.23 73.853 821.176 71.6572 821.14 56.1425L821.068 38.5579H810.989H800.909L800.981 59.0222Z" fill="#0050F6"/>
<path d="M267.164 91.6717V65.1462H259.095L258.362 67.66C261.166 67.66 261.506 68.6287 261.547 70.709L261.553 70.671V91.671C261.512 93.7513 261.173 94.7208 258.368 94.7208V97.2331H270.347V94.7208C267.543 94.7208 267.205 93.7513 267.164 91.6717ZM259.318 55.0862H246.618V57.5659H247.973C249.28 57.5659 250.254 57.7935 250.898 58.2448C251.542 58.6954 251.865 59.4303 251.865 60.4487C251.865 61.1323 251.395 62.8739 251.233 63.5342L243.536 89.8431L233.621 55.491H229.354L219.864 90.7621L211.941 62.5826C211.826 62.1414 211.721 61.7475 211.625 61.3995C211.329 60.3353 211.445 58.9502 212.36 58.2448C212.947 57.7935 213.834 57.5659 215.027 57.5659H216.382V55.0862H200.122V57.5659C201.313 57.5659 202.6 57.5115 203.582 58.1998C204.375 58.7606 204.788 59.7472 205.081 60.6794L215.891 97.2331H221.34L230.363 64.1666L239.993 97.2331H245.295L255.41 62.1484C255.698 61.1696 255.987 60.3834 256.275 59.786C257.084 58.1104 257.97 57.722 259.317 57.5659V55.0862H259.318ZM202.988 79.0731H197.074C196.628 79.0731 196.267 79.4344 196.267 79.8803V80.7519C196.267 81.1978 196.628 81.559 197.074 81.559H202.988C203.434 81.559 203.795 81.1978 203.795 80.7519V79.8803C203.796 79.4344 203.435 79.0731 202.988 79.0731ZM292.309 82.5634C291.578 81.8045 290.646 81.1022 289.517 80.4598C288.387 79.8166 287.033 79.164 285.455 78.5014C284.129 77.9568 282.994 77.4643 282.05 77.0262C281.105 76.5881 280.336 76.1359 279.741 75.6667C279.147 75.1999 278.714 74.6887 278.44 74.1325C278.167 73.5771 278.032 72.9191 278.032 72.1601C278.032 71.4594 278.139 70.8155 278.352 70.2313C278.566 69.6463 278.903 69.1406 279.361 68.7118C279.82 68.283 280.409 67.9521 281.129 67.719C281.85 67.4844 282.717 67.3679 283.731 67.3679C285.503 67.3679 286.803 67.9233 287.632 69.0334C288.458 70.145 288.873 71.7041 288.873 73.7107C290.256 73.7107 291.323 73.3844 292.073 72.7311C292.824 72.0786 293.198 71.207 293.198 70.1163C293.198 69.376 293.013 68.6691 292.643 67.9963C292.272 67.3236 291.718 66.7402 290.977 66.243C290.236 65.7466 289.321 65.352 288.231 65.0599C287.138 64.7671 285.882 64.6218 284.46 64.6218C282.765 64.6218 281.225 64.8075 279.843 65.1772C278.46 65.5478 277.271 66.0884 276.276 66.7985C275.284 67.51 274.519 68.3917 273.983 69.4436C273.448 70.4954 273.179 71.7041 273.179 73.0675C273.179 74.3733 273.364 75.4989 273.735 76.4428C274.105 77.3882 274.659 78.2311 275.401 78.9714C276.142 79.7109 277.081 80.3984 278.22 81.0315C279.361 81.6639 280.701 82.3218 282.24 83.0039C283.681 83.6269 284.879 84.1831 285.836 84.6694C286.789 85.1565 287.544 85.6335 288.099 86.1019C288.655 86.5695 289.045 87.0706 289.268 87.6074C289.492 88.1418 289.605 88.7812 289.605 89.5215C289.605 90.3208 289.459 91.0557 289.167 91.7277C288.875 92.3996 288.45 92.9745 287.895 93.4522C287.339 93.93 286.652 94.3005 285.836 94.5639C285.017 94.8264 284.072 94.9585 283.001 94.9585C281.791 94.9585 280.774 94.7581 279.946 94.3588C279.118 93.9595 278.45 93.4142 277.945 92.7228C277.439 92.0314 277.078 91.2282 276.863 90.3115C276.65 89.3972 276.542 88.4129 276.542 87.3603C276.191 87.3603 275.797 87.424 275.358 87.5507C274.92 87.6773 274.512 87.8964 274.131 88.2086C273.752 88.5194 273.43 88.9435 273.166 89.4803C272.904 90.0148 272.772 90.6836 272.772 91.4814C272.772 92.5332 273.005 93.4538 273.474 94.243C273.942 95.0323 274.604 95.6949 275.462 96.2309C276.319 96.767 277.356 97.1662 278.574 97.4288C279.79 97.6922 281.15 97.8227 282.651 97.8227C284.423 97.8227 286.035 97.6285 287.488 97.2385C288.937 96.8493 290.181 96.2605 291.213 95.472C292.246 94.682 293.044 93.7031 293.61 92.534C294.175 91.3657 294.457 90.0023 294.457 88.4432C294.457 87.1964 294.282 86.0957 293.932 85.1409C293.579 84.1816 293.038 83.3239 292.309 82.5634ZM267.742 46.3826C267.56 46.2055 267.481 45.9476 267.532 45.6983L268.376 41.6665C268.43 41.4024 268.154 41.195 267.916 41.3208L264.272 43.2427C264.047 43.3616 263.777 43.3569 263.557 43.2303L259.982 41.1818C259.748 41.0482 259.465 41.247 259.51 41.5119L260.213 45.5716C260.255 45.8218 260.168 46.0774 259.98 46.2483L256.927 49.0153C256.727 49.1955 256.829 49.5265 257.094 49.5661L261.173 50.1526C261.424 50.1891 261.64 50.3515 261.743 50.583L263.433 54.3412C263.543 54.5867 263.889 54.5929 264.007 54.3521L265.824 50.6544C265.938 50.426 266.16 50.2714 266.412 50.245L270.508 49.8007C270.775 49.7719 270.887 49.4441 270.694 49.2569L267.742 46.3826ZM338.351 94.0348C338.351 92.2287 336.906 90.8141 335.036 90.8141C333.164 90.8141 331.698 92.2287 331.698 94.0348C331.698 95.8534 333.164 97.2781 335.036 97.2781C336.895 97.2773 338.351 95.8526 338.351 94.0348ZM339.086 94.0341C339.086 96.2511 337.303 98.0107 335.036 98.0107C332.771 98.0107 330.962 96.2511 330.962 94.0341C330.962 91.817 332.771 90.0808 335.036 90.0808H335.06C337.303 90.0808 339.086 91.8162 339.086 94.0341ZM181.045 83.094L173.445 61.5494L165.839 82.4516C168.356 83.4863 171.141 84.0612 174.124 84.0612C176.617 84.0612 178.928 83.7217 181.045 83.094ZM194.77 95.3329H195.56V97.8483H179.094V95.3329H180.468C183.55 95.3329 184.48 93.62 183.934 91.4426C183.847 91.0922 183.725 90.6922 183.568 90.2439L181.846 85.3647C179.191 86.3046 176.219 86.8453 172.973 86.8453C169.977 86.8453 167.223 86.3691 164.726 85.5115L163.153 89.8345C162.978 90.3022 162.841 90.7652 162.744 91.2235C162.337 93.1283 162.862 94.118 163.577 94.6307C164.23 95.0983 165.229 95.3322 166.575 95.3322H167.95V97.8475H153.326V95.3322H154.466C155.051 95.3322 155.548 95.2692 155.958 95.1426C156.94 94.8381 157.559 93.9152 158.02 92.9916C158.321 92.3888 158.659 91.608 159.028 90.6518L161.471 84.1116C153.132 79.721 148.449 70.6298 148.449 61.2379C148.449 35.4705 177.121 27 201.633 27C223.065 27 244.237 35.0208 255.897 43.7484C255.988 43.8168 256.011 43.9434 255.95 44.0397C255.888 44.1361 255.765 44.1687 255.664 44.1151C247.212 39.6079 228.703 31.0504 203.069 31.0504C180.667 31.0504 152.553 38.125 152.553 61.8307C152.553 69.8755 156.474 76.9353 162.693 80.8396L172.307 55.0862H176.986L186.335 80.6719C190.072 78.2815 192.862 74.7788 194.54 70.6189C194.577 70.5288 194.676 70.4799 194.768 70.5055C194.862 70.5304 194.921 70.622 194.907 70.7176C194.199 75.4283 191.397 79.7303 187.08 82.7087L190.529 92.1448C190.763 92.7686 191.002 93.2852 191.246 93.6946C192.047 95.0432 193.214 95.3329 194.77 95.3329ZM335.784 93.2868C335.784 92.9248 335.518 92.6847 334.94 92.6847C334.699 92.6847 334.531 92.7088 334.434 92.7329V93.8655H334.868C335.375 93.8647 335.784 93.6962 335.784 93.2868ZM336.652 95.1178C336.771 95.7206 336.869 95.9381 336.942 96.0826H335.977C335.856 95.9373 335.784 95.6002 335.663 95.1178C335.591 94.7084 335.351 94.5157 334.843 94.5157H334.409V96.0833H333.494V92.1301C333.855 92.0819 334.362 92.0097 335.013 92.0097C335.759 92.0097 336.096 92.1301 336.361 92.3227C336.603 92.4921 336.771 92.7811 336.771 93.1664C336.771 93.6488 336.409 93.9611 335.951 94.1071V94.1545C336.338 94.2749 336.531 94.5887 336.652 95.1178ZM325.257 91.2608V76.2804C325.257 68.8811 322.117 64.5651 314.807 64.5651C310.927 64.5651 307.553 66.097 305.823 69.6859V51.763H301.019H300.183H296.998V54.2752C299.801 54.2752 300.142 55.2447 300.183 57.325V91.6717C300.142 93.7521 299.802 94.7216 296.998 94.7216V97.2338H309.007V94.7216C306.206 94.7216 305.863 93.7536 305.822 91.6772V78.7811C305.822 73.4279 308.06 68.3902 313.07 68.3902C318.05 68.3902 319.645 71.5534 319.645 76.5725V92.6583C319.645 94.8078 320.937 98.0107 325.395 98.0107C328.636 97.9951 329.212 95.5574 329.212 95.5574C329.212 95.5574 325.257 96.1416 325.257 91.2608ZM67.3557 81.1022C64.4185 81.1022 59.2471 80.7721 56.5135 83.1624C55.812 83.7753 55.3102 84.5311 55.0088 85.4276C54.7066 86.3225 54.5551 87.3549 54.5551 88.524C54.5551 90.3939 54.9497 91.7921 55.739 92.7181C56.5275 93.6426 57.7502 94.1055 59.4064 94.1055C60.6136 94.1055 61.7105 93.9113 62.6947 93.5206C63.6782 93.1322 64.5156 92.5767 65.207 91.8543C65.8991 91.1342 66.4297 90.2571 66.8003 89.224C67.17 88.1923 67.3557 87.0434 67.3557 85.7764V81.1022ZM76.8819 94.6905V94.8521C76.861 95.486 76.5331 97.8172 72.8743 97.8172C68.9707 97.8172 67.9989 92.9364 67.8699 92.1705L67.8521 92.0602C67.2283 92.8968 65.9504 97.7877 58.0322 97.7877C56.7077 97.7877 55.4756 97.5982 54.336 97.2183C53.1964 96.8384 52.2122 96.2535 51.3849 95.4642C50.5568 94.6742 49.9089 93.6822 49.4412 92.4835C48.9736 91.2857 48.7398 89.8679 48.7398 88.2312C48.7398 85.0555 49.8693 82.6978 52.1298 81.1589C56.6758 78.0625 63.1895 78.4703 67.3557 78.4703V74.8759C67.3557 73.8047 67.2966 72.8158 67.1801 71.9092C67.0628 71.0034 66.8096 70.2243 66.4204 69.5717C66.0304 68.9192 65.4703 68.4127 64.7401 68.0523C64.0091 67.691 63.0303 67.5116 61.8021 67.5116C60.6532 67.5116 59.7226 67.6716 59.0118 67.9932C58.3002 68.3148 57.7448 68.7677 57.3462 69.3519C56.947 69.9369 56.679 70.629 56.5422 71.4276C56.4063 72.2269 56.3387 73.0939 56.3387 74.0276C54.6817 74.0276 53.4202 73.7464 52.554 73.1809C51.6863 72.6161 51.2536 71.6428 51.2536 70.2585C51.2536 69.2261 51.5348 68.349 52.1003 67.6281C52.6659 66.908 53.4404 66.3176 54.4238 65.8601C55.4073 65.4025 56.5523 65.0669 57.8574 64.8517C59.1625 64.6381 60.5561 64.5309 62.0367 64.5309C63.8677 64.5309 65.4657 64.7104 66.8298 65.0708C68.1931 65.432 69.3327 66.0209 70.2478 66.8381C71.1637 67.6576 71.8512 68.7235 72.3087 70.0378C72.7663 71.353 72.9955 72.9665 72.9955 74.8759V90.3931C72.9955 91.2313 73.0413 91.8108 73.1392 92.3639C73.749 95.8076 76.8819 94.6905 76.8819 94.6905ZM106.363 93.4639C105.339 92.6272 104.312 91.4084 103.279 89.8112L95.3021 77.9755L99.5094 73.2415C101.068 71.4688 102.515 70.0953 103.85 69.1212C105.184 68.147 106.543 67.66 107.927 67.66V65.1462H103.693H96.03V67.66C98.7193 67.66 99.3967 68.4539 97.7708 70.4527C96.1294 72.2588 94.6363 73.9033 94.3668 74.2055L87.6115 81.5947V58.5517V51.7272H78.7867V54.241C81.5903 54.241 81.9298 55.2097 81.9709 57.2909V91.6717C81.9298 93.7521 81.5903 94.7216 78.7867 94.7216V97.2338H90.7957V94.7216C87.9921 94.7216 87.6526 93.7521 87.6115 91.6717V91.6725V86.4056L91.5321 82.0383L97.2403 90.7776C98.0777 92.1021 98.8623 93.1291 99.5195 93.9191C101.58 96.3956 102.589 97.8491 105.935 97.8491C109.631 97.8491 110.089 94.7223 110.089 94.7223H109.913C108.57 94.7208 107.386 94.3021 106.363 93.4639ZM23.5534 88.7307L11.1622 54.509H0V57.0221C2.80357 57.0221 3.14305 57.9916 3.18422 60.0719V91.6717C3.14305 93.7521 2.80357 94.7216 0 94.7216V97.2338H10.0226V94.7216C7.21907 94.7216 6.87959 93.7521 6.83842 91.6717L6.83764 91.6787V59.097L20.7188 97.2338H23.9628L37.6684 58.9812V91.6717C37.6272 93.7521 37.2878 94.7216 34.4842 94.7216V97.2338H46.6097V94.7216C43.8069 94.7216 43.4667 93.7521 43.4255 91.6717V60.0719C43.4667 57.9916 43.8069 57.0221 46.6097 57.0221V54.509H35.8273L23.5534 88.7307ZM128.728 78.3849C128.728 76.8064 128.611 75.3653 128.378 74.0595C128.144 72.7544 127.773 71.635 127.267 70.6997C126.761 69.7652 126.092 69.0427 125.265 68.537C124.437 68.0305 123.419 67.7765 122.211 67.7765C119.99 67.7765 118.281 68.6776 117.083 70.4799C115.884 72.2821 115.178 74.9171 114.964 78.3849H128.728ZM133.915 72.6426C134.489 74.4261 134.778 76.4956 134.778 78.8525V81.5994H114.847C114.886 83.7823 115.105 85.6583 115.504 87.2252C115.903 88.7944 116.478 90.0847 117.229 91.0969C117.978 92.1106 118.899 92.8556 119.99 93.3326C121.081 93.8103 122.338 94.0488 123.76 94.0488C124.792 94.0488 125.752 93.9315 126.639 93.6977C127.525 93.4647 128.329 93.1532 129.05 92.7624C129.771 92.374 130.409 91.9312 130.964 91.4333C131.519 90.9369 131.972 90.4156 132.323 89.8703C132.595 89.9868 132.853 90.2299 133.097 90.5997C133.34 90.9703 133.463 91.4084 133.463 91.9149C133.463 92.5185 133.248 93.1671 132.82 93.8577C132.391 94.5507 131.738 95.1877 130.861 95.7718C129.984 96.3568 128.889 96.8439 127.574 97.2331C126.259 97.623 124.715 97.8172 122.942 97.8172C120.779 97.8172 118.836 97.4521 117.112 96.7227C115.388 95.9925 113.931 94.9259 112.743 93.5229C111.554 92.1192 110.643 90.4001 110.01 88.364C109.377 86.3279 109.061 84.0145 109.061 81.4238C109.061 75.8322 110.21 71.6234 112.509 68.7988C114.807 65.9743 118.081 64.5612 122.328 64.5612C124.258 64.5612 125.991 64.8634 127.53 65.467C129.068 66.0714 130.374 66.9717 131.446 68.1696C132.518 69.3705 133.34 70.8605 133.915 72.6426ZM148.154 79.8803V80.7519C148.154 81.1978 147.793 81.559 147.347 81.559H141.433C140.987 81.559 140.626 81.1978 140.626 80.7519V79.8803C140.626 79.4344 140.987 79.0731 141.433 79.0731H147.347C147.793 79.0731 148.154 79.4344 148.154 79.8803Z" fill="#0050F6"/>
<rect x="465.757" y="0.681885" width="4.37556" height="175.582" transform="rotate(44.9079 465.757 0.681885)" fill="#0050F6"/>
</svg>
