<svg width="14" height="14" viewBox="0 0 14 14" fill="none" xmlns="http://www.w3.org/2000/svg">
<path d="M14 7C14 8.85652 13.2625 10.637 11.9497 11.9497C10.637 13.2625 8.85652 14 7 14C5.14348 14 3.36301 13.2625 2.05025 11.9497C0.737498 10.637 0 8.85652 0 7C0 5.14348 0.737498 3.36301 2.05025 2.05025C3.36301 0.737498 5.14348 0 7 0C8.85652 0 10.637 0.737498 11.9497 2.05025C13.2625 3.36301 14 5.14348 14 7ZM4.809 5.27887H5.53088C5.65163 5.27887 5.74787 5.18 5.76362 5.06012C5.84237 4.48612 6.23612 4.06788 6.93787 4.06788C7.53812 4.06788 8.08763 4.368 8.08763 5.08987C8.08763 5.6455 7.76037 5.901 7.24325 6.2895C6.65437 6.71738 6.188 7.217 6.22125 8.02813L6.22387 8.218C6.22479 8.27541 6.24825 8.33015 6.28917 8.37042C6.33009 8.41069 6.38521 8.43326 6.44262 8.43325H7.15225C7.21027 8.43325 7.26591 8.4102 7.30693 8.36918C7.34795 8.32816 7.371 8.27252 7.371 8.2145V8.12262C7.371 7.49437 7.60988 7.3115 8.25475 6.82237C8.78763 6.41725 9.34325 5.9675 9.34325 5.02338C9.34325 3.70125 8.22675 3.0625 7.00438 3.0625C5.89575 3.0625 4.68125 3.57875 4.59813 5.06275C4.59693 5.09101 4.60152 5.11921 4.61163 5.14563C4.62173 5.17204 4.63713 5.19611 4.65689 5.21636C4.67664 5.2366 4.70032 5.25259 4.72648 5.26334C4.75264 5.27409 4.78072 5.27938 4.809 5.27887ZM6.84338 10.9165C7.37713 10.9165 7.74375 10.5717 7.74375 10.1054C7.74375 9.62237 7.37625 9.28288 6.84338 9.28288C6.33238 9.28288 5.9605 9.62237 5.9605 10.1054C5.9605 10.5717 6.3315 10.9165 6.84338 10.9165Z" fill="#0A192F"/>
</svg>
