<svg width="12" height="12" viewBox="0 0 12 12" fill="none" xmlns="http://www.w3.org/2000/svg">
<path d="M0 6C0 4.4087 0.632141 2.88258 1.75736 1.75736C2.88258 0.632141 4.4087 0 6 0C7.5913 0 9.11742 0.632141 10.2426 1.75736C11.3679 2.88258 12 4.4087 12 6C12 7.5913 11.3679 9.11742 10.2426 10.2426C9.11742 11.3679 7.5913 12 6 12C4.4087 12 2.88258 11.3679 1.75736 10.2426C0.632141 9.11742 0 7.5913 0 6ZM8.8248 4.9248C8.88059 4.86901 8.92484 4.80279 8.95503 4.7299C8.98522 4.65701 9.00076 4.57889 9.00076 4.5C9.00076 4.42111 8.98522 4.34299 8.95503 4.2701C8.92484 4.19721 8.88059 4.13099 8.8248 4.0752C8.76901 4.01941 8.70279 3.97516 8.6299 3.94497C8.55701 3.91478 8.47889 3.89924 8.4 3.89924C8.32111 3.89924 8.24299 3.91478 8.1701 3.94497C8.09721 3.97516 8.03099 4.01941 7.9752 4.0752L5.4 6.6516L4.0248 5.2752C3.96901 5.21941 3.90279 5.17516 3.8299 5.14497C3.75701 5.11478 3.67889 5.09924 3.6 5.09924C3.52111 5.09924 3.44299 5.11478 3.3701 5.14497C3.29721 5.17516 3.23099 5.21941 3.1752 5.2752C3.11941 5.33099 3.07516 5.39721 3.04497 5.4701C3.01478 5.54299 2.99924 5.62111 2.99924 5.7C2.99924 5.77889 3.01478 5.85701 3.04497 5.9299C3.07516 6.00279 3.11941 6.06901 3.1752 6.1248L4.9752 7.9248C5.03093 7.98068 5.09715 8.02501 5.17004 8.05526C5.24293 8.0855 5.32108 8.10107 5.4 8.10107C5.47892 8.10107 5.55707 8.0855 5.62996 8.05526C5.70285 8.02501 5.76907 7.98068 5.8248 7.9248L8.8248 4.9248Z" fill="white"/>
</svg>
