<svg width="172" height="268" viewBox="0 0 172 268" fill="none" xmlns="http://www.w3.org/2000/svg">
<path d="M50.2182 16.4114C49.7951 15.9728 49.2587 15.6612 48.6697 15.5118C48.0806 15.3624 47.4622 15.3811 46.8842 15.5659C46.3062 15.7506 45.7916 16.0941 45.3984 16.5575C45.0052 17.0209 44.7491 17.5858 44.6589 18.1886L40.2282 48.1194L13.1559 61.3462C12.6096 61.613 12.1491 62.0283 11.8264 62.545C11.5037 63.0618 11.3317 63.6594 11.3299 64.2703C11.3281 64.8812 11.4965 65.4809 11.8161 66.0016C12.1356 66.5224 12.5937 66.9434 13.1383 67.2169L40.1254 80.7855L44.3651 110.778C44.451 111.382 44.7033 111.951 45.0936 112.419C45.4838 112.888 45.9964 113.239 46.5735 113.431C47.1506 113.623 47.7693 113.65 48.3596 113.508C48.95 113.366 49.4885 113.061 49.9144 112.627L71.0225 91.0757L100.718 96.3869C101.316 96.4931 101.932 96.4292 102.495 96.2025C103.058 95.9758 103.547 95.5952 103.905 95.1037C104.264 94.6123 104.478 94.0295 104.524 93.4212C104.57 92.8129 104.446 92.2033 104.165 91.6612L90.2193 64.765L104.334 38.0645C104.618 37.5257 104.747 36.9171 104.706 36.3075C104.664 35.698 104.453 35.1118 104.097 34.6152C103.742 34.1187 103.255 33.7317 102.692 33.4979C102.13 33.2641 101.514 33.193 100.914 33.2925L71.1891 38.2221L50.2182 16.4114Z" fill="#39468F"/>
<path d="M139.236 98.2194C139.045 97.9906 138.794 97.8198 138.512 97.7263C138.23 97.6327 137.928 97.6203 137.639 97.6902C137.351 97.7602 137.087 97.9098 136.879 98.1222C136.671 98.3345 136.526 98.6013 136.461 98.8923L133.253 113.343L119.579 118.851C119.303 118.962 119.064 119.149 118.888 119.39C118.713 119.631 118.608 119.916 118.586 120.214C118.564 120.512 118.625 120.811 118.762 121.076C118.9 121.341 119.109 121.563 119.365 121.715L132.06 129.28L133.08 144.064C133.101 144.362 133.204 144.649 133.378 144.891C133.552 145.134 133.79 145.323 134.065 145.437C134.34 145.551 134.641 145.585 134.934 145.537C135.227 145.488 135.501 145.358 135.724 145.161L146.778 135.382L161.083 139.013C161.371 139.085 161.674 139.076 161.957 138.985C162.24 138.894 162.491 138.725 162.683 138.498C162.876 138.271 163.001 137.994 163.044 137.698C163.088 137.403 163.049 137.101 162.931 136.827L157.066 123.214L164.887 110.678C165.045 110.425 165.129 110.133 165.13 109.834C165.131 109.535 165.049 109.242 164.892 108.987C164.736 108.732 164.512 108.526 164.246 108.392C163.979 108.259 163.681 108.202 163.385 108.23L148.707 109.596L139.236 98.2194Z" fill="#39468F"/>
<path d="M41.0029 139.211C40.8588 139.155 40.7021 139.14 40.5505 139.168C40.3988 139.196 40.2583 139.266 40.1447 139.37C40.0311 139.474 39.949 139.608 39.9076 139.757C39.8662 139.905 39.8672 140.062 39.9104 140.211L42.0677 147.579L37.2333 153.502C37.1357 153.622 37.0737 153.766 37.0542 153.92C37.0347 154.073 37.0586 154.229 37.123 154.37C37.1875 154.511 37.29 154.631 37.4189 154.718C37.5479 154.804 37.6981 154.852 37.8527 154.857L45.5129 155.118L49.675 161.58C49.7589 161.71 49.8775 161.814 50.0172 161.881C50.1569 161.948 50.3123 161.974 50.4657 161.957C50.6191 161.94 50.7645 161.881 50.8855 161.785C51.0064 161.69 51.0982 161.562 51.1503 161.417L53.7262 154.209L61.1337 152.279C61.2829 152.24 61.418 152.16 61.5237 152.048C61.6295 151.936 61.7016 151.796 61.7321 151.645C61.7625 151.494 61.75 151.337 61.696 151.192C61.6419 151.047 61.5485 150.919 61.4263 150.824L55.3562 146.107L55.7736 138.455C55.782 138.3 55.7471 138.146 55.6727 138.01C55.5984 137.874 55.4876 137.761 55.3529 137.685C55.2181 137.608 55.0648 137.571 54.9104 137.576C54.7559 137.582 54.6064 137.631 54.4787 137.718L48.1519 142.011L41.0029 139.211Z" fill="#39468F"/>
<path d="M82.3595 173.268C82.254 172.841 82.032 172.453 81.7184 172.147C81.4048 171.84 81.0122 171.629 80.5847 171.535C80.1573 171.441 79.7121 171.47 79.2993 171.617C78.8865 171.764 78.5225 172.024 78.2484 172.367L64.667 189.442L42.9944 187.912C42.5572 187.881 42.1197 187.974 41.7316 188.18C41.3435 188.385 41.0202 188.696 40.7983 189.077C40.5764 189.457 40.4647 189.892 40.476 190.333C40.4872 190.773 40.6209 191.201 40.8618 191.569L52.7977 209.788L44.6044 230.035C44.4396 230.443 44.3915 230.889 44.4656 231.323C44.5396 231.756 44.7328 232.16 45.0234 232.489C45.314 232.817 45.6904 233.058 46.1101 233.182C46.5298 233.307 46.9761 233.311 47.3986 233.195L68.3581 227.375L84.968 241.421C85.3031 241.703 85.7103 241.886 86.1437 241.948C86.5771 242.01 87.0195 241.949 87.4208 241.772C87.8221 241.595 88.1664 241.309 88.4149 240.946C88.6633 240.583 88.806 240.157 88.8269 239.718L89.845 217.895L108.301 206.335C108.674 206.102 108.974 205.769 109.168 205.374C109.363 204.978 109.443 204.536 109.4 204.098C109.358 203.659 109.194 203.242 108.927 202.893C108.661 202.544 108.302 202.276 107.892 202.122L87.5628 194.456L82.3595 173.268Z" fill="#39468F"/>
<path d="M93.2739 255.652C93.2356 255.587 93.1801 255.534 93.1135 255.499C93.047 255.465 92.9721 255.449 92.8973 255.455C92.8225 255.46 92.7508 255.487 92.6902 255.531C92.6296 255.576 92.5826 255.636 92.5545 255.706L91.1635 259.178L87.5289 259.993C87.4556 260.009 87.3883 260.046 87.3347 260.099C87.2811 260.151 87.2432 260.218 87.2255 260.292C87.2078 260.365 87.2108 260.442 87.2343 260.514C87.2578 260.586 87.3008 260.649 87.3585 260.698L90.2145 263.103L89.8644 266.831C89.8574 266.906 89.8714 266.982 89.9049 267.05C89.9383 267.117 89.9899 267.174 90.0538 267.214C90.1177 267.253 90.1913 267.274 90.2664 267.274C90.3414 267.274 90.415 267.253 90.4786 267.213L93.6347 265.227L97.0532 266.717C97.1221 266.747 97.198 266.757 97.2722 266.746C97.3464 266.734 97.4161 266.703 97.4733 266.654C97.5305 266.605 97.573 266.541 97.5959 266.469C97.6189 266.397 97.6214 266.321 97.6032 266.247L96.6975 262.613L99.1603 259.807C99.21 259.751 99.2429 259.681 99.2554 259.607C99.2678 259.532 99.2593 259.456 99.2308 259.386C99.2022 259.316 99.1548 259.255 99.0938 259.211C99.0329 259.167 98.9608 259.141 98.8859 259.135L95.1702 258.876L93.2739 255.652Z" fill="#39468F"/>
<path d="M112.674 227.517C112.614 227.414 112.527 227.33 112.422 227.274C112.318 227.218 112.2 227.193 112.082 227.201C111.964 227.209 111.85 227.25 111.754 227.319C111.658 227.389 111.583 227.484 111.538 227.594L109.302 233.055L103.558 234.297C103.442 234.322 103.336 234.379 103.25 234.462C103.165 234.545 103.105 234.65 103.076 234.766C103.047 234.881 103.051 235.003 103.087 235.116C103.123 235.23 103.19 235.331 103.281 235.408L107.758 239.237L107.162 245.115C107.15 245.233 107.171 245.353 107.223 245.46C107.275 245.567 107.356 245.657 107.456 245.72C107.557 245.784 107.673 245.818 107.791 245.818C107.909 245.819 108.026 245.786 108.127 245.724L113.13 242.627L118.506 245.019C118.614 245.067 118.734 245.084 118.851 245.067C118.968 245.05 119.078 245.001 119.169 244.925C119.26 244.848 119.328 244.748 119.365 244.635C119.402 244.522 119.407 244.401 119.379 244.285L117.993 238.54L121.912 234.142C121.991 234.054 122.044 233.944 122.064 233.827C122.085 233.71 122.072 233.589 122.028 233.478C121.984 233.368 121.91 233.272 121.814 233.201C121.718 233.131 121.605 233.088 121.487 233.079L115.628 232.626L112.674 227.517Z" fill="#39468F"/>
</svg>
