<svg width="21" height="21" viewBox="0 0 21 21" fill="none" xmlns="http://www.w3.org/2000/svg">
<path d="M10.5 0C13.2848 0 15.9555 1.10625 17.9246 3.07538C19.8938 5.04451 21 7.71523 21 10.5C21 13.2848 19.8938 15.9555 17.9246 17.9246C15.9555 19.8938 13.2848 21 10.5 21C7.71523 21 5.04451 19.8938 3.07538 17.9246C1.10625 15.9555 0 13.2848 0 10.5C0 7.71523 1.10625 5.04451 3.07538 3.07538C5.04451 1.10625 7.71523 0 10.5 0ZM10.5 4.5C10.3096 4.49984 10.1212 4.5394 9.94689 4.61615C9.7726 4.6929 9.61624 4.80516 9.48778 4.94575C9.35933 5.08635 9.26161 5.25218 9.20086 5.43268C9.14012 5.61317 9.11769 5.80435 9.135 5.994L9.6825 12.003C9.70373 12.205 9.79901 12.392 9.94996 12.528C10.1009 12.6639 10.2969 12.7391 10.5 12.7391C10.7031 12.7391 10.8991 12.6639 11.05 12.528C11.201 12.392 11.2963 12.205 11.3175 12.003L11.8635 5.994C11.8808 5.80447 11.8584 5.61342 11.7978 5.43303C11.7371 5.25264 11.6395 5.08688 11.5112 4.9463C11.3829 4.80573 11.2267 4.69344 11.0526 4.6166C10.8785 4.53976 10.6903 4.50005 10.5 4.5ZM10.5 16.5C10.8183 16.5 11.1235 16.3736 11.3485 16.1485C11.5736 15.9235 11.7 15.6183 11.7 15.3C11.7 14.9817 11.5736 14.6765 11.3485 14.4515C11.1235 14.2264 10.8183 14.1 10.5 14.1C10.1817 14.1 9.87652 14.2264 9.65147 14.4515C9.42643 14.6765 9.3 14.9817 9.3 15.3C9.3 15.6183 9.42643 15.9235 9.65147 16.1485C9.87652 16.3736 10.1817 16.5 10.5 16.5Z" fill="#F6F9FF"/>
</svg>
